<svg width="50" height="16" viewBox="0 0 50 16" fill="none" xmlns="http://www.w3.org/2000/svg">
<path d="M20.0203 0.256104L17.4792 15.1681H21.5433L24.0865 0.256104H20.0203Z" fill="#4285F4"/>
<path d="M14.0716 0.27282L10.0911 10.4424L9.66675 8.90684C8.88174 7.05669 6.6532 4.39959 4.03687 2.72505L7.67653 15.1608L11.9768 15.1534L18.3771 0.269684L14.0716 0.27282Z" fill="#4285F4"/>
<path d="M8.12392 1.34002C7.88769 0.431672 7.20303 0.160944 6.35322 0.12854H0.0522641L0 0.4254C4.90341 1.61493 8.14797 4.48109 9.49429 7.92738L8.12392 1.34002Z" fill="#4285F4"/>
<path d="M32.3232 3.11494C33.6528 3.09403 34.6166 3.38462 35.365 3.68566L35.7319 3.85813L36.2817 0.626122C35.4769 0.324036 34.2152 0 32.641 0C28.625 0 25.7944 2.02262 25.7725 4.92118C25.7463 7.06296 27.7888 8.25877 29.3316 8.97269C30.9152 9.70439 31.4463 10.1695 31.4389 10.8228C31.4264 11.8211 30.1762 12.2789 29.0087 12.2789C27.3812 12.2789 26.5167 12.0542 25.1819 11.4981L24.6582 11.2598L24.0864 14.5973C25.0376 15.0144 26.7927 15.3729 28.6146 15.3918C32.8866 15.3918 35.6629 13.3932 35.6922 10.296C35.71 8.60162 34.626 7.3086 32.2772 6.24764C30.8557 5.55567 29.986 5.09574 29.9944 4.3975C29.9944 3.77764 30.7323 3.11494 32.3232 3.11494Z" fill="#4285F4"/>
<path d="M46.7116 0.272797H43.5716C42.5964 0.272797 41.8709 0.538298 41.4424 1.51041L35.408 15.1764H39.6758C39.6758 15.1764 40.372 13.3388 40.5298 12.9364C40.9971 12.9364 45.1437 12.9426 45.7343 12.9426C45.8555 13.4632 46.2298 15.1764 46.2298 15.1764H50.0001L46.7116 0.272797ZM41.6995 9.88416C42.034 9.02807 43.3186 5.71662 43.3186 5.71662C43.2967 5.75739 43.65 4.85426 43.8601 4.29295L44.134 5.57864C44.134 5.57864 44.9127 9.13887 45.0758 9.88416H41.6995Z" fill="#4285F4"/>
</svg>
