<svg width="30" height="26" viewBox="0 0 30 26" fill="none" xmlns="http://www.w3.org/2000/svg">
<path d="M9.4377 25.1875C20.7557 25.1875 26.9479 15.8084 26.9479 7.67739C26.9479 7.41372 26.942 7.14418 26.9303 6.88051C28.1348 6.00939 29.1744 4.93038 30 3.69418C28.8782 4.19331 27.6871 4.51929 26.4674 4.66098C27.7516 3.8912 28.7132 2.6819 29.1738 1.25727C27.9657 1.97326 26.6445 2.47833 25.2668 2.75082C24.3385 1.76451 23.1112 1.11146 21.7746 0.892625C20.438 0.673793 19.0665 0.901374 17.8722 1.54018C16.6779 2.17899 15.7272 3.19344 15.1673 4.4267C14.6074 5.65996 14.4693 7.04333 14.7744 8.36293C12.3281 8.24017 9.93492 7.60469 7.74998 6.49768C5.56503 5.39068 3.63712 3.83686 2.09121 1.93696C1.3055 3.29162 1.06507 4.89462 1.41879 6.42018C1.77251 7.94573 2.69383 9.27937 3.99551 10.15C3.01829 10.119 2.06247 9.85591 1.20703 9.38247V9.45864C1.20616 10.8802 1.69762 12.2583 2.59789 13.3585C3.49815 14.4588 4.75165 15.2133 6.14531 15.4938C5.24007 15.7415 4.28998 15.7776 3.36855 15.5993C3.76182 16.8219 4.52697 17.8912 5.55721 18.658C6.58746 19.4248 7.8314 19.8508 9.11543 19.8766C6.93553 21.589 4.24272 22.5177 1.4707 22.5133C0.979109 22.5126 0.487999 22.4824 0 22.4231C2.81607 24.2297 6.09191 25.1893 9.4377 25.1875Z" fill="white"/>
</svg>
